<?xml version="1.0" standalone="no"?>
<!DOCTYPE svg PUBLIC "-//W3C//DTD SVG 20010904//EN"
 "http://www.w3.org/TR/2001/REC-SVG-20010904/DTD/svg10.dtd">
<svg version="1.0" xmlns="http://www.w3.org/2000/svg"
 width="512.000000pt" height="512.000000pt" viewBox="0 0 512.000000 512.000000"
 preserveAspectRatio="xMidYMid meet">

<g transform="translate(0.000000,512.000000) scale(0.100000,-0.100000)"
fill="#FFFFFF" stroke="none">
<path d="M725 4672 c-120 -41 -205 -117 -258 -230 -30 -63 -32 -74 -32 -177 0
-105 2 -114 34 -180 38 -76 103 -148 171 -188 73 -42 149 -57 297 -57 l133 0
2 -1548 3 -1548 37 -75 c46 -93 112 -158 206 -202 l67 -32 1420 -3 c996 -2
1436 1 1473 9 182 37 348 199 397 384 21 81 21 364 1 404 -25 48 -45 51 -346
51 l-280 0 0 1013 0 1012 325 325 c270 270 329 324 349 322 26 -3 47 22 39 46
-3 7 25 44 61 82 80 83 96 118 96 210 0 68 -1 71 -39 109 -44 44 -87 57 -153
47 -58 -9 -90 -29 -166 -100 -56 -54 -72 -63 -94 -59 -23 4 -28 1 -33 -20 -4
-14 -4 -30 -1 -35 2 -4 -83 -96 -190 -203 l-194 -194 0 200 c0 148 -4 216 -15
260 -47 181 -199 333 -380 380 -52 13 -235 15 -1470 15 -1311 -1 -1414 -2
-1460 -18z m238 -225 c30 -18 56 -44 74 -75 27 -45 28 -52 28 -182 l0 -135
-135 0 c-130 0 -137 1 -182 28 -84 49 -124 150 -98 245 14 52 83 126 132 141
55 17 130 8 181 -22z m2687 5 c72 -35 114 -75 151 -144 l34 -63 3 -309 3 -309
-129 -131 c-141 -143 -126 -120 -340 -541 -66 -130 -60 -127 -116 -46 -49 73
-64 82 -86 56 -11 -13 -4 -29 43 -99 l55 -83 -59 -89 -59 -89 0 193 0 192 101
0 c98 0 101 1 130 29 32 32 38 79 17 126 -19 42 -57 55 -156 55 l-90 0 -7 204
c-4 113 -4 209 0 215 4 7 46 11 106 11 98 0 101 1 130 29 32 32 38 79 17 126
-19 43 -56 55 -163 55 l-95 0 0 35 c0 110 -103 164 -176 91 -29 -29 -34 -41
-34 -80 l0 -46 -140 0 -140 0 0 33 c0 38 -30 106 -54 127 -25 20 -81 18 -107
-5 -29 -26 -49 -76 -49 -120 l0 -35 -125 0 -125 0 0 33 c0 38 -30 106 -54 127
-25 20 -81 18 -107 -5 -29 -26 -49 -76 -49 -120 l0 -35 -96 0 c-72 0 -103 -4
-124 -17 -58 -34 -68 -116 -21 -164 29 -28 32 -29 135 -29 l106 0 0 -215 0
-215 -96 0 c-72 0 -103 -4 -124 -17 -58 -34 -68 -116 -21 -164 29 -28 32 -29
134 -29 l104 0 7 -92 c3 -50 6 -147 6 -215 l0 -123 -101 0 c-76 0 -108 -4
-129 -17 -55 -32 -67 -112 -26 -160 23 -27 29 -28 138 -33 l113 -5 3 -212 2
-213 -101 0 c-76 0 -108 -4 -129 -17 -58 -34 -68 -116 -21 -164 29 -29 31 -29
140 -29 l111 0 0 -31 c0 -210 198 -237 214 -28 l4 54 121 3 121 3 0 -31 c0
-211 198 -238 214 -29 l4 54 130 5 c144 6 161 13 182 75 9 26 8 41 -4 68 -23
56 -56 67 -196 67 l-120 0 0 215 0 215 140 0 140 0 0 -91 c0 -98 15 -148 54
-174 46 -33 124 -8 147 47 8 20 14 69 14 123 l0 90 103 5 c98 5 105 6 128 33
42 49 27 135 -27 163 -18 9 -60 14 -119 14 -78 0 -90 2 -90 17 0 13 3 14 12 5
22 -22 35 -12 88 68 29 45 56 77 60 73 4 -4 31 -43 60 -85 54 -80 68 -90 90
-63 11 13 3 31 -50 109 -35 52 -63 98 -62 102 0 5 10 25 23 45 23 38 24 39
312 189 l157 82 0 -911 0 -911 -1026 0 c-945 0 -1028 -1 -1055 -17 -15 -9 -33
-28 -38 -42 -6 -14 -11 -116 -13 -226 -3 -198 -3 -200 -31 -247 -82 -140 -282
-141 -369 -1 l-23 38 -5 1790 -5 1790 -22 55 c-13 30 -23 56 -23 58 0 1 534 1
1188 0 l1187 -3 45 -23z m-1210 -839 c0 -13 -3 -14 -12 -5 -23 23 -38 11 -73
-58 -19 -38 -37 -70 -40 -70 -3 0 -21 32 -40 70 -35 69 -50 81 -73 58 -9 -9
-12 -8 -12 5 0 15 14 17 125 17 111 0 125 -2 125 -17z m490 -198 l0 -215 -134
0 c-130 0 -134 1 -140 23 -3 12 -6 109 -6 215 l0 192 140 0 140 0 0 -215z
m-490 -25 l0 -190 -120 0 c-66 0 -120 4 -120 9 0 4 11 6 24 4 22 -5 29 3 58
61 l33 66 33 -65 c32 -65 49 -77 71 -51 10 11 3 32 -30 97 l-41 83 43 88 c24
48 44 88 46 88 2 0 3 -85 3 -190z m-200 100 l40 -80 -40 -80 c-22 -44 -42 -80
-45 -80 -3 0 -5 72 -5 160 0 88 2 160 5 160 3 0 23 -36 45 -80z m204 -592 c3
-50 6 -147 6 -215 l0 -123 -125 0 -125 0 0 215 0 215 119 0 118 0 7 -92z m494
-125 l2 -213 -140 0 -140 0 0 215 0 216 138 -3 137 -3 3 -212z m-490 -640 l2
-213 -125 0 -125 0 0 215 0 216 123 -3 122 -3 3 -212z m2030 -1161 c-4 -87 -9
-105 -38 -161 -37 -69 -68 -99 -144 -139 l-51 -27 -1187 -3 c-654 -1 -1188 -1
-1188 0 0 2 10 28 22 58 18 46 22 81 26 213 l4 157 1280 0 1281 0 -5 -98z"/>
</g>
</svg>
